<svg width="18" height="18" viewBox="0 0 18 18" fill="none" xmlns="http://www.w3.org/2000/svg">
<path d="M0.666504 14.8333C0.666504 16.25 1.74984 17.3333 3.1665 17.3333H14.8332C16.2498 17.3333 17.3332 16.25 17.3332 14.8333V8.16666H0.666504V14.8333ZM14.8332 2.33332H13.1665V1.49999C13.1665 0.99999 12.8332 0.666656 12.3332 0.666656C11.8332 0.666656 11.4998 0.99999 11.4998 1.49999V2.33332H6.49984V1.49999C6.49984 0.99999 6.1665 0.666656 5.6665 0.666656C5.1665 0.666656 4.83317 0.99999 4.83317 1.49999V2.33332H3.1665C1.74984 2.33332 0.666504 3.41666 0.666504 4.83332V6.49999H17.3332V4.83332C17.3332 3.41666 16.2498 2.33332 14.8332 2.33332Z" fill="black"/>
</svg>
