<svg width="18" height="18" viewBox="0 0 18 18" fill="none" xmlns="http://www.w3.org/2000/svg">
<path fill-rule="evenodd" clip-rule="evenodd" d="M6.99345 1.66665C6.86239 1.78524 6.72466 1.89626 6.58095 1.99915C6.33262 2.16582 6.05345 2.28082 5.76012 2.33915C5.63262 2.36415 5.49928 2.37499 5.23345 2.39582C4.56595 2.44915 4.23178 2.47582 3.95345 2.57415C3.6352 2.68652 3.34614 2.86871 3.10749 3.10736C2.86884 3.34601 2.68665 3.63507 2.57428 3.95332C2.47595 4.23165 2.44928 4.56582 2.39595 5.23332C2.38686 5.40979 2.36794 5.58562 2.33928 5.75999C2.28095 6.05332 2.16595 6.33249 1.99928 6.58082C1.92678 6.68915 1.84012 6.79082 1.66678 6.99332C1.23262 7.50332 1.01512 7.75832 0.887617 8.02499C0.593451 8.64165 0.593451 9.35832 0.887617 9.97499C1.01512 10.2417 1.23262 10.4967 1.66678 11.0067C1.84012 11.2092 1.92678 11.3108 1.99928 11.4192C2.16595 11.6675 2.28095 11.9467 2.33928 12.24C2.36428 12.3675 2.37512 12.5008 2.39595 12.7667C2.44928 13.4342 2.47595 13.7683 2.57428 14.0467C2.68665 14.3649 2.86884 14.654 3.10749 14.8926C3.34614 15.1313 3.6352 15.3135 3.95345 15.4258C4.23178 15.5242 4.56595 15.5508 5.23345 15.6042C5.49928 15.625 5.63262 15.6358 5.76012 15.6608C6.05345 15.7192 6.33262 15.835 6.58095 16.0008C6.68928 16.0733 6.79095 16.16 6.99345 16.3333C7.50345 16.7675 7.75845 16.985 8.02512 17.1125C8.64178 17.4067 9.35845 17.4067 9.97512 17.1125C10.2418 16.985 10.4968 16.7675 11.0068 16.3333C11.2093 16.16 11.311 16.0733 11.4193 16.0008C11.6676 15.8342 11.9468 15.7192 12.2401 15.6608C12.3676 15.6358 12.501 15.625 12.7668 15.6042C13.4343 15.5508 13.7684 15.5242 14.0468 15.4258C14.365 15.3135 14.6541 15.1313 14.8927 14.8926C15.1314 14.654 15.3136 14.3649 15.426 14.0467C15.5243 13.7683 15.551 13.4342 15.6043 12.7667C15.6251 12.5008 15.636 12.3675 15.661 12.24C15.7193 11.9467 15.8351 11.6675 16.0009 11.4192C16.0734 11.3108 16.1601 11.2092 16.3334 11.0067C16.7676 10.4967 16.9851 10.2417 17.1126 9.97499C17.4068 9.35832 17.4068 8.64165 17.1126 8.02499C16.9851 7.75832 16.7676 7.50332 16.3334 6.99332C16.2149 6.86226 16.1038 6.72453 16.0009 6.58082C15.8344 6.33239 15.7189 6.05339 15.661 5.75999C15.6323 5.58562 15.6134 5.40979 15.6043 5.23332C15.551 4.56582 15.5243 4.23165 15.426 3.95332C15.3136 3.63507 15.1314 3.34601 14.8927 3.10736C14.6541 2.86871 14.365 2.68652 14.0468 2.57415C13.7684 2.47582 13.4343 2.44915 12.7668 2.39582C12.5903 2.38673 12.4145 2.36781 12.2401 2.33915C11.9467 2.28123 11.6677 2.16566 11.4193 1.99915C11.2757 1.89604 11.138 1.78504 11.0068 1.66665C10.4968 1.23249 10.2418 1.01499 9.97512 0.887486C9.67068 0.741971 9.33754 0.666443 9.00012 0.666443C8.66269 0.666443 8.32955 0.741971 8.02512 0.887486C7.75845 1.01499 7.50345 1.23249 6.99345 1.66665ZM12.6443 7.21915C12.7621 7.09024 12.8256 6.92088 12.8217 6.74631C12.8177 6.57175 12.7466 6.40542 12.6232 6.28195C12.4997 6.15848 12.3334 6.08738 12.1588 6.08344C11.9842 6.07951 11.8149 6.14304 11.686 6.26082L7.64428 10.3025L6.31428 8.97332C6.18537 8.85554 6.01601 8.79201 5.84144 8.79594C5.66688 8.79988 5.50055 8.87098 5.37708 8.99445C5.25361 9.11792 5.18251 9.28425 5.17857 9.45881C5.17464 9.63338 5.23817 9.80274 5.35595 9.93165L7.16428 11.74C7.29146 11.8669 7.46378 11.9382 7.64345 11.9382C7.82312 11.9382 7.99544 11.8669 8.12262 11.74L12.6451 7.21915H12.6443Z" fill="#5A85EE"/>
</svg>
