<svg width="18" height="13" viewBox="0 0 18 13" fill="none" xmlns="http://www.w3.org/2000/svg">
<path d="M12.3332 11.1667V12.8333H0.666504V11.1667C0.666504 11.1667 0.666504 7.83333 6.49984 7.83333C12.3332 7.83333 12.3332 11.1667 12.3332 11.1667ZM9.4165 3.24999C9.4165 2.67313 9.24544 2.10922 8.92496 1.62958C8.60447 1.14994 8.14895 0.7761 7.616 0.555344C7.08305 0.334589 6.4966 0.276829 5.93082 0.389369C5.36505 0.50191 4.84535 0.779695 4.43744 1.1876C4.02954 1.5955 3.75175 2.1152 3.63921 2.68098C3.52667 3.24676 3.58443 3.8332 3.80519 4.36615C4.02594 4.8991 4.39978 5.35463 4.87942 5.67511C5.35907 5.9956 5.92297 6.16666 6.49984 6.16666C7.27338 6.16666 8.01525 5.85937 8.56223 5.31239C9.10921 4.76541 9.4165 4.02354 9.4165 3.24999ZM12.2832 7.83333C12.7955 8.22978 13.2146 8.73369 13.5112 9.30958C13.8078 9.88548 13.9746 10.5194 13.9998 11.1667V12.8333H17.3332V11.1667C17.3332 11.1667 17.3332 8.14166 12.2832 7.83333ZM11.4998 0.333326C10.9262 0.330132 10.3653 0.501623 9.8915 0.824993C10.3977 1.53227 10.6699 2.38023 10.6699 3.24999C10.6699 4.11975 10.3977 4.96771 9.8915 5.67499C10.3653 5.99836 10.9262 6.16985 11.4998 6.16666C12.2734 6.16666 13.0153 5.85937 13.5622 5.31239C14.1092 4.76541 14.4165 4.02354 14.4165 3.24999C14.4165 2.47644 14.1092 1.73458 13.5622 1.1876C13.0153 0.640617 12.2734 0.333326 11.4998 0.333326Z" fill="black"/>
</svg>
