<svg width="18" height="18" viewBox="0 0 18 18" fill="none" xmlns="http://www.w3.org/2000/svg">
<path d="M1.70698 0.874994C1.01913 0.546422 0.263411 1.17499 0.459839 1.91142L1.89984 7.29214C1.93593 7.42737 2.01095 7.54902 2.11559 7.64197C2.22023 7.73493 2.34987 7.79509 2.48841 7.81499L9.54841 8.82356C9.7527 8.85214 9.7527 9.14785 9.54841 9.17714L2.48913 10.185C2.35058 10.2049 2.22094 10.2651 2.1163 10.358C2.01166 10.451 1.93664 10.5726 1.90055 10.7079L0.459839 16.0914C0.263411 16.8271 1.01913 17.4557 1.70698 17.1278L17.0627 9.80714C17.7406 9.48428 17.7406 8.51856 17.0627 8.19499L1.70698 0.874994Z" fill="black"/>
</svg>
