<svg width="17" height="20" viewBox="0 0 17 20" fill="none" xmlns="http://www.w3.org/2000/svg">
<path d="M6.97219 4.00634C7.33192 4.24671 7.75485 4.375 8.1875 4.375C8.76747 4.37438 9.32351 4.14371 9.73361 3.73361C10.1437 3.32351 10.3744 2.76747 10.375 2.1875C10.375 1.75485 10.2467 1.33192 10.0063 0.972191C9.76597 0.612459 9.42433 0.332081 9.02462 0.166515C8.62491 0.000947831 8.18507 -0.042372 7.76074 0.0420332C7.33641 0.126438 6.94663 0.334778 6.64071 0.640705C6.33478 0.946632 6.12644 1.33641 6.04203 1.76074C5.95763 2.18507 6.00095 2.62491 6.16651 3.02462C6.33208 3.42433 6.61246 3.76598 6.97219 4.00634Z" fill="black"/>
<path d="M14.982 4.41088L14.9996 4.40619C15.7418 4.21127 16.2492 4.96635 16.2492 5.65502C16.2492 6.34369 15.6242 6.66791 14.9992 6.90229C14.9785 6.91012 14.9574 6.9169 14.9359 6.9226L11.4484 8.14174C11 8.3101 10.8078 8.4851 10.7656 8.56323L10.7639 8.56665L10.7625 8.56909C10.718 8.64838 10.5863 8.98666 10.75 10.0105L10.9762 11.7683L12.2508 18.5937C12.2625 18.6453 12.2723 18.6984 12.2805 18.7523C12.3734 19.3851 11.9102 19.9999 11.0305 19.9999C10.2648 19.9999 9.92695 19.4714 9.78047 18.7523C9.78047 18.7523 8.65391 12.5972 8.10703 12.5972C7.56016 12.5972 6.46641 18.7523 6.46641 18.7523C6.31992 19.4714 5.98203 19.9999 5.21641 19.9999C4.33906 19.9999 3.87578 19.3878 3.96641 18.757L3.97539 18.7074C3.97852 18.6878 3.98203 18.6687 3.98594 18.6499L5.24336 11.7675L5.46992 10.0097C5.51562 9.72377 5.64453 8.90463 5.4832 8.49096C5.43359 8.36205 5.33203 8.21323 4.95195 8.06752L1.23242 6.9058V6.89487C0.613281 6.66166 0 6.33666 0 5.65424C0 4.96518 0.507813 4.21127 1.25 4.40659C1.356 4.43421 1.46033 4.46786 1.5625 4.50737C2.58906 4.79916 5.79805 5.65854 8.10781 5.65854C10.5934 5.65854 14.1215 4.66401 14.8484 4.45073C14.8875 4.43862 14.9266 4.4269 14.9656 4.41596L14.982 4.41088Z" fill="black"/>
</svg>
