<svg width="16" height="16" viewBox="0 0 16 16" fill="none" xmlns="http://www.w3.org/2000/svg">
<path d="M8 13.8333C8.76604 13.8333 9.52459 13.6824 10.2323 13.3893C10.9401 13.0961 11.5831 12.6665 12.1248 12.1248C12.6665 11.5831 13.0961 10.9401 13.3893 10.2323C13.6824 9.52459 13.8333 8.76604 13.8333 8M8 13.8333C6.4529 13.8333 4.96917 13.2188 3.87521 12.1248C2.78125 11.0308 2.16667 9.5471 2.16667 8M8 13.8333V15.5M13.8333 8C13.8333 7.23396 13.6824 6.47541 13.3893 5.76768C13.0961 5.05995 12.6665 4.41689 12.1248 3.87521C11.5831 3.33354 10.9401 2.90385 10.2323 2.6107C9.52459 2.31755 8.76604 2.16667 8 2.16667M13.8333 8H15.5M8 2.16667C6.4529 2.16667 4.96917 2.78125 3.87521 3.87521C2.78125 4.96917 2.16667 6.4529 2.16667 8M8 2.16667V0.5M2.16667 8H0.5" stroke="black" stroke-width="0.875" stroke-linecap="round" stroke-linejoin="round"/>
</svg>
