<svg width="12" height="16" viewBox="0 0 12 16" fill="none" xmlns="http://www.w3.org/2000/svg">
<path d="M2 0C1.46957 0 0.960859 0.210714 0.585786 0.585786C0.210714 0.960859 0 1.46957 0 2V14C0 14.5304 0.210714 15.0391 0.585786 15.4142C0.960859 15.7893 1.46957 16 2 16H10C10.5304 16 11.0391 15.7893 11.4142 15.4142C11.7893 15.0391 12 14.5304 12 14V5.414C11.9996 5.01631 11.8414 4.63503 11.56 4.354L7.646 0.439C7.3648 0.157982 6.98355 8.48813e-05 6.586 0H2ZM1 2C1 1.73478 1.10536 1.48043 1.29289 1.29289C1.48043 1.10536 1.73478 1 2 1H6V4.5C6 4.89782 6.15803 5.27936 6.43934 5.56066C6.72064 5.84196 7.10217 6 7.5 6H11V14C11 14.2652 10.8946 14.5196 10.7071 14.7071C10.5196 14.8946 10.2652 15 10 15H2C1.73478 15 1.48043 14.8946 1.29289 14.7071C1.10536 14.5196 1 14.2652 1 14V2ZM10.793 5H7.5C7.36739 5 7.24021 4.94732 7.14645 4.85355C7.05268 4.75979 7 4.63261 7 4.5V1.207L10.793 5Z" fill="black"/>
</svg>
