<svg width="16" height="17" viewBox="0 0 16 17" fill="none" xmlns="http://www.w3.org/2000/svg">
<path d="M7.19167 1.15834C7.41757 0.967041 7.70399 0.862061 8 0.862061C8.29601 0.862061 8.58243 0.967041 8.80833 1.15834L15.0583 6.46084C15.1967 6.57817 15.3079 6.72422 15.3842 6.88884C15.4605 7.05347 15.5 7.23273 15.5 7.41417V15.25C15.5 15.5815 15.3683 15.8995 15.1339 16.1339C14.8995 16.3683 14.5815 16.5 14.25 16.5H9.45833C9.29257 16.5 9.1336 16.4342 9.01639 16.3169C8.89918 16.1997 8.83333 16.0408 8.83333 15.875V10.6667H7.16667V15.875C7.16667 16.0408 7.10082 16.1997 6.98361 16.3169C6.8664 16.4342 6.70743 16.5 6.54167 16.5H1.75C1.41848 16.5 1.10054 16.3683 0.866117 16.1339C0.631696 15.8995 0.5 15.5815 0.5 15.25V7.41417C0.5 7.0475 0.661667 6.69834 0.941667 6.46084L7.19167 1.15834ZM8 2.11167L1.75 7.41417V15.25H5.91667V10.0417C5.91667 9.87591 5.98251 9.71694 6.09973 9.59973C6.21694 9.48252 6.37591 9.41667 6.54167 9.41667H9.45833C9.62409 9.41667 9.78306 9.48252 9.90027 9.59973C10.0175 9.71694 10.0833 9.87591 10.0833 10.0417V15.25H14.25V7.41417L8 2.11167Z" fill="black"/>
</svg>
