<svg width="14" height="18" viewBox="0 0 14 18" fill="none" xmlns="http://www.w3.org/2000/svg">
<path d="M12.625 16.6562H8.34531C9.1065 16.0039 9.81956 15.2973 10.4789 14.5422C12.5984 12.1047 13.7188 9.54219 13.7188 7.125C13.7188 5.34308 13.0109 3.63414 11.7509 2.37413C10.4909 1.11412 8.78192 0.40625 7 0.40625C5.21808 0.40625 3.50914 1.11412 2.24913 2.37413C0.989117 3.63414 0.28125 5.34308 0.28125 7.125C0.28125 9.53984 1.40156 12.1047 3.52109 14.5422C4.18044 15.2973 4.8935 16.0039 5.65469 16.6562H1.375C1.25068 16.6562 1.13145 16.7056 1.04354 16.7935C0.955636 16.8815 0.90625 17.0007 0.90625 17.125C0.90625 17.2493 0.955636 17.3685 1.04354 17.4565C1.13145 17.5444 1.25068 17.5938 1.375 17.5938H12.625C12.7493 17.5938 12.8685 17.5444 12.9565 17.4565C13.0444 17.3685 13.0938 17.2493 13.0938 17.125C13.0938 17.0007 13.0444 16.8815 12.9565 16.7935C12.8685 16.7056 12.7493 16.6562 12.625 16.6562ZM1.21875 7.125C1.21875 5.59172 1.82784 4.12123 2.91204 3.03704C3.99623 1.95284 5.46672 1.34375 7 1.34375C8.53328 1.34375 10.0038 1.95284 11.088 3.03704C12.1722 4.12123 12.7812 5.59172 12.7812 7.125C12.7812 11.7828 8.17188 15.6352 7 16.5398C5.82812 15.6352 1.21875 11.7828 1.21875 7.125ZM9.96875 7.125C9.96875 6.53784 9.79464 5.96386 9.46842 5.47565C9.14221 4.98744 8.67856 4.60693 8.13609 4.38223C7.59362 4.15754 6.99671 4.09874 6.42083 4.21329C5.84494 4.32784 5.31596 4.61059 4.90078 5.02578C4.48559 5.44096 4.20284 5.96994 4.08829 6.54583C3.97374 7.12171 4.03254 7.71862 4.25723 8.26109C4.48193 8.80356 4.86244 9.26721 5.35065 9.59342C5.83886 9.91964 6.41284 10.0938 7 10.0938C7.78736 10.0938 8.54247 9.78097 9.09922 9.22422C9.65597 8.66747 9.96875 7.91236 9.96875 7.125ZM4.96875 7.125C4.96875 6.72326 5.08788 6.33054 5.31108 5.9965C5.53427 5.66246 5.85151 5.40211 6.22267 5.24837C6.59384 5.09463 7.00225 5.0544 7.39628 5.13278C7.7903 5.21116 8.15224 5.40461 8.43631 5.68869C8.72039 5.97276 8.91384 6.3347 8.99222 6.72872C9.0706 7.12275 9.03037 7.53116 8.87663 7.90233C8.72289 8.27349 8.46254 8.59073 8.1285 8.81392C7.79446 9.03712 7.40174 9.15625 7 9.15625C6.46128 9.15625 5.94462 8.94224 5.56369 8.56131C5.18276 8.18038 4.96875 7.66372 4.96875 7.125Z" fill="black"/>
</svg>
