<svg width="14" height="9" viewBox="0 0 14 9" fill="none" xmlns="http://www.w3.org/2000/svg">
<path d="M13.6923 7.94219C13.6342 8.0003 13.5653 8.0464 13.4894 8.07785C13.4136 8.10931 13.3322 8.12549 13.2501 8.12549C13.168 8.12549 13.0866 8.10931 13.0108 8.07785C12.9349 8.0464 12.866 8.0003 12.8079 7.94219L7.0001 2.1336L1.19229 7.94219C1.07502 8.05947 0.915956 8.12535 0.750103 8.12535C0.584251 8.12535 0.425191 8.05947 0.307916 7.94219C0.19064 7.82492 0.124756 7.66586 0.124756 7.5C0.124756 7.33415 0.19064 7.17509 0.307916 7.05782L6.55792 0.807816C6.61596 0.749705 6.68489 0.703606 6.76077 0.672154C6.83664 0.640701 6.91797 0.624512 7.0001 0.624512C7.08224 0.624512 7.16357 0.640701 7.23944 0.672154C7.31531 0.703606 7.38425 0.749705 7.44229 0.807816L13.6923 7.05782C13.7504 7.11586 13.7965 7.18479 13.828 7.26067C13.8594 7.33654 13.8756 7.41787 13.8756 7.5C13.8756 7.58214 13.8594 7.66347 13.828 7.73934C13.7965 7.81522 13.7504 7.88415 13.6923 7.94219Z" fill="black"/>
</svg>
