<svg width="13" height="18" viewBox="0 0 13 18" fill="none" xmlns="http://www.w3.org/2000/svg">
<path d="M12.25 0.875H9.12496C8.9592 0.875 8.80023 0.940848 8.68302 1.05806C8.56581 1.17527 8.49996 1.33424 8.49996 1.5C8.49996 1.66576 8.56581 1.82473 8.68302 1.94194C8.80023 2.05915 8.9592 2.125 9.12496 2.125H10.7414L8.77652 4.08984C8.19959 3.55218 7.50365 3.15861 6.74556 2.94128C5.98747 2.72396 5.18872 2.68903 4.41455 2.83936C3.64038 2.9897 2.91275 3.32102 2.29109 3.80628C1.66943 4.29154 1.17137 4.91696 0.83759 5.63148C0.50381 6.34599 0.343776 7.12932 0.370561 7.9175C0.397345 8.70567 0.610188 9.47633 0.991704 10.1665C1.37322 10.8567 1.91259 11.4469 2.56576 11.8888C3.21893 12.3308 3.96737 12.6119 4.74996 12.7094V14H2.87496C2.7092 14 2.55023 14.0658 2.43302 14.1831C2.31581 14.3003 2.24996 14.4592 2.24996 14.625C2.24996 14.7908 2.31581 14.9497 2.43302 15.0669C2.55023 15.1842 2.7092 15.25 2.87496 15.25H4.74996V17.125C4.74996 17.2908 4.81581 17.4497 4.93302 17.5669C5.05023 17.6842 5.2092 17.75 5.37496 17.75C5.54072 17.75 5.69969 17.6842 5.8169 17.5669C5.93411 17.4497 5.99996 17.2908 5.99996 17.125V15.25H7.87496C8.04072 15.25 8.19969 15.1842 8.3169 15.0669C8.43411 14.9497 8.49996 14.7908 8.49996 14.625C8.49996 14.4592 8.43411 14.3003 8.3169 14.1831C8.19969 14.0658 8.04072 14 7.87496 14H5.99996V12.7094C6.83772 12.6047 7.63526 12.2894 8.31806 11.7928C9.00086 11.2963 9.54662 10.6347 9.90433 9.86996C10.262 9.10522 10.42 8.26228 10.3635 7.4199C10.307 6.57753 10.0379 5.76324 9.58121 5.05313L11.625 3.00859V4.625C11.625 4.79076 11.6908 4.94973 11.808 5.06694C11.9252 5.18415 12.0842 5.25 12.25 5.25C12.4157 5.25 12.5747 5.18415 12.6919 5.06694C12.8091 4.94973 12.875 4.79076 12.875 4.625V1.5C12.875 1.33424 12.8091 1.17527 12.6919 1.05806C12.5747 0.940848 12.4157 0.875 12.25 0.875ZM5.37496 11.5C4.63328 11.5 3.90826 11.2801 3.29157 10.868C2.67489 10.456 2.19424 9.87029 1.91041 9.18506C1.62658 8.49984 1.55232 7.74584 1.69702 7.01841C1.84171 6.29098 2.19886 5.6228 2.72331 5.09835C3.24776 4.5739 3.91594 4.21675 4.64337 4.07206C5.3708 3.92736 6.1248 4.00162 6.81002 4.28545C7.49525 4.56928 8.08092 5.04993 8.49297 5.66661C8.90503 6.2833 9.12496 7.00832 9.12496 7.75C9.12393 8.74424 8.72851 9.69747 8.02547 10.4005C7.32243 11.1035 6.36921 11.499 5.37496 11.5Z" fill="black"/>
</svg>
