<svg width="800px" height="800px" viewBox="0 0 72 72" id="emoji" xmlns="http://www.w3.org/2000/svg">
  <style>
    :root {
      --primary-color: #FFCDD2;
      --primary-dark-color: #FFAAB3;
      --secondary-color: #D0CFCE;
      --outline-color: #000000;
      --bg-color: #E74C3C;
    }
    
    @media (prefers-color-scheme: dark) {
      :root {
        --primary-color: #4A235A;
        --primary-dark-color: #6C3483;
        --secondary-color: #95A5A6;
        --outline-color: #E9ECEF;
        --bg-color: #8E44AD;
      }
    }
    
    .primary-fill {
      fill: var(--primary-color);
    }
    
    .primary-dark-fill {
      fill: var(--primary-dark-color);
    }
    
    .secondary-fill {
      fill: var(--secondary-color);
      stroke: var(--secondary-color);
    }
    
    .secondary-fill-no-stroke {
      fill: var(--secondary-color);
    }
    
    .bg-fill {
      fill: var(--bg-color);
    }
    
    .outline-stroke {
      stroke: var(--outline-color);
    }
  </style>
  
  <g id="color">
    <path class="secondary-fill" stroke-linecap="round" stroke-linejoin="round" stroke-miterlimit="10" stroke-width="2" d="M27.1244,42.9616v11.2545c0,0-0.1171,1.9012,2.5264,1.9012s11.7694,0,11.7694,0s2.2545,0.5562,2.2545-2.4086 c0-1.6448,0-6.6322,0-10.7472"/>
    <path class="secondary-fill-no-stroke" stroke="none" stroke-linecap="round" stroke-linejoin="round" stroke-miterlimit="10" stroke-width="2" d="M27.1244,46.7322v8.0389c0,0-0.1171,1.358,2.5264,1.358s11.7694,0,11.7694,0s2.2545,0.3973,2.2545-1.7204 c0-1.1748,0-4.7373,0-7.6766"/>
    <path class="primary-fill" stroke="none" d="M60.996,33.9584c0,8.8366-11.1929,9-25,9s-25-0.1634-25-9s11.1929-23,25-23S60.996,25.1218,60.996,33.9584 z"/>
    <path fill="none" class="bg-fill" stroke-linecap="round" stroke-linejoin="round" stroke-miterlimit="10" stroke-width="2" d="M60.996,33.9584c0,8.8366-11.1929,9-25,9s-25-0.1634-25-9s11.1929-23,25-23S60.996,25.1218,60.996,33.9584z"/>
    <path class="primary-dark-fill" stroke="none" d="M60.996,33.9591c0,8.8374-11.194,9.0023-25.0039,9.0023c33.1736-7.5962,0-32.0031,0-32.0031 C49.802,10.9583,60.996,25.1217,60.996,33.9591z"/>
    <path class="secondary-fill-no-stroke" stroke="none" stroke-linecap="round" stroke-linejoin="round" stroke-miterlimit="10" stroke-width="2" d="M22.7421,15.3869c0,0,4.6919,14.1211-10.9254,14.0122C11.8167,29.399,14.8217,20.3354,22.7421,15.3869z"/>
    <ellipse cx="35.996" cy="30.1489" rx="8.0208" ry="6.1759" transform="matrix(0.9993 -0.0382 0.0382 0.9993 -1.1252 1.3968)" class="secondary-fill-no-stroke" stroke="none" stroke-linecap="round" stroke-linejoin="round" stroke-miterlimit="10" stroke-width="2"/>
    <path class="secondary-fill-no-stroke" stroke="none" stroke-linecap="round" stroke-linejoin="round" stroke-miterlimit="10" stroke-width="2" d="M49.1551,15.3869c0,0-4.6919,14.1211,10.9254,14.0122C60.0804,29.399,57.0754,20.3354,49.1551,15.3869z"/>
  </g>
  <g id="hair"/>
  <g id="skin"/>
  <g id="skin-shadow"/>
  <g id="line">
    <path fill="none" class="outline-stroke" stroke-linecap="round" stroke-linejoin="round" stroke-miterlimit="10" stroke-width="2" d="M27.1244,42.9616v11.2545c0,0-0.1171,1.9012,2.5264,1.9012s11.7694,0,11.7694,0s2.2545,0.5562,2.2545-2.4086 c0-1.6448,0-6.6322,0-10.7472"/>
    <path fill="none" class="outline-stroke" stroke-linecap="round" stroke-linejoin="round" stroke-miterlimit="10" stroke-width="2" d="M60.996,33.9584c0,8.8366-11.1929,9-25,9s-25-0.1634-25-9s11.1929-23,25-23S60.996,25.1218,60.996,33.9584z"/>
    <path fill="none" class="outline-stroke" stroke-linecap="round" stroke-linejoin="round" stroke-miterlimit="10" stroke-width="2" d="M60.996,33.9584c0,8.8366-11.1929,9-25,9s-25-0.1634-25-9s11.1929-23,25-23S60.996,25.1218,60.996,33.9584z"/>
    <path fill="none" class="outline-stroke" stroke-linecap="round" stroke-linejoin="round" stroke-miterlimit="10" stroke-width="2" d="M22.7421,15.3869c0,0,4.6919,14.1211-10.9254,14.0122C11.8167,29.399,14.8217,20.3354,22.7421,15.3869z"/>
    <ellipse cx="35.996" cy="30.1489" rx="8.0208" ry="6.1759" transform="matrix(0.9993 -0.0382 0.0382 0.9993 -1.1252 1.3968)" fill="none" class="outline-stroke" stroke-linecap="round" stroke-linejoin="round" stroke-miterlimit="10" stroke-width="2"/>
    <path fill="none" class="outline-stroke" stroke-linecap="round" stroke-linejoin="round" stroke-miterlimit="10" stroke-width="2" d="M49.1551,15.3869c0,0-4.6919,14.1211,10.9254,14.0122C60.0804,29.399,57.0754,20.3354,49.1551,15.3869z"/>
  </g>
</svg>
